<svg id="Layer_1" data-name="Layer 1" xmlns="http://www.w3.org/2000/svg" viewBox="0 0 1000 1000"><defs><style>.cls-1{fill:#3b88bd;}.cls-2{opacity:0.25;}.cls-3,.cls-5{fill:#fff;}.cls-3,.cls-4{stroke:#fff;stroke-miterlimit:10;}.cls-4{fill:none;stroke-linecap:round;stroke-width:29px;}</style></defs><title>GrainCoin</title><circle class="cls-1" cx="500.5" cy="499.5" r="429"/><g class="cls-2"><circle cx="500.5" cy="499.5" r="360.5"/></g><path class="cls-3" d="M459,601h0c-41.26,0-75-30.61-75-68V519a.85.85,0,0,1,.89-.8L438.13,527c31.29,4.5,54.13,21,54.13,43.88h0C492.27,587.54,477.38,601,459,601Z"/><path class="cls-3" d="M459,506.58h0c-41.26,0-75-30.61-75-68v-14a.85.85,0,0,1,.89-.8l53.25,8.84c31.29,4.5,54.13,21,54.13,43.88h0C492.27,493.08,477.38,506.58,459,506.58Z"/><path class="cls-3" d="M459,418.19h0c-41.26,0-75-30.61-75-68v-14a.85.85,0,0,1,.89-.8l53.25,8.84c31.29,4.5,54.13,21,54.13,43.88h0C492.27,404.7,477.38,418.19,459,418.19Z"/><path class="cls-3" d="M541,601h0c41.26,0,75-30.61,75-68V519a.85.85,0,0,0-.89-.8L561.87,527c-31.29,4.5-54.13,21-54.13,43.88h0C507.73,587.54,522.62,601,541,601Z"/><path class="cls-3" d="M541,507.13h0c41.26,0,75-30.61,75-68v-14a.85.85,0,0,0-.89-.8l-53.25,8.84c-31.29,4.5-54.13,21-54.13,43.88h0C507.73,493.63,522.62,507.13,541,507.13Z"/><path class="cls-3" d="M541,418.19h0c41.26,0,75-30.61,75-68v-14a.85.85,0,0,0-.89-.8l-53.25,8.84c-31.29,4.5-54.13,21-54.13,43.88h0C507.73,404.7,522.62,418.19,541,418.19Z"/><path class="cls-3" d="M531.45,310.92h0c11.87-39.52-7.73-80.66-43.56-91.43l-13.43-4a.85.85,0,0,0-1,.62l-6.86,53.54c-4.69,31.26,4.52,57.88,26.44,64.47h0C509,338.88,526.17,328.51,531.45,310.92Z"/><line class="cls-4" x1="500.56" y1="630.79" x2="500.56" y2="785.5"/><path class="cls-5" d="M500.5,139C699.6,139,861,300.4,861,499.5S699.6,860,500.5,860,140,698.6,140,499.5,301.4,139,500.5,139m0-10a369.37,369.37,0,1,0,144.22,29.12A368.19,368.19,0,0,0,500.5,129Z"/></svg>