<svg class="shopping-cart-svg" xmlns="http://www.w3.org/2000/svg" viewBox="0 0 5000 5000">title><%= gettext("Shopping Cart") %></title><path  d="M4695.2 989.5H952.4l-48-169.6c-1.9-60.7-52.2-109.8-113.3-109.8H187.9c-62.4 0-113.4 51-113.4 113.4v35c0 62.4 51 113.4 113.4 113.4h487.4l84.3 298 363.9 1611.5c0 39.8 9 77.1 24.7 109.2l-166.9 633c-2.2 8.4-3.4 16.8-3.6 25.2-8.8 16.1-13.8 34.5-13.8 54v66.8c0 62.4 51 113.4 113.4 113.4h70c-107.6 43.8-183.4 149.3-183.4 272.6 0 162.5 131.7 294.2 294.2 294.2s294.2-131.7 294.2-294.2c0-123.3-75.9-228.9-183.4-272.6h2757c-107.6 43.8-183.4 149.3-183.4 272.6 0 162.5 131.7 294.2 294.2 294.2s294.2-131.7 294.2-294.2c0-123.3-75.9-228.9-183.4-272.6h70c62.4 0 113.4-51 113.4-113.4v-66.8c0-62.4-51-113.4-113.4-113.4H1333.2l134-508.3 3228-340.6c100.4 0 181.8-97.1 181.8-216.8V1206.3c0-119.7-81.4-216.8-181.8-216.8z"/></svg>
