<svg id="Layer_1" data-name="Layer 1" xmlns="http://www.w3.org/2000/svg" viewBox="0 0 1000 1000"><title>Trashcan</title><path d="M720.22,133.17H630C629.84,97.89,614.88,66.94,587.8,46c-23.29-18-54.25-27.93-87.17-27.93S436.75,28,413.46,46c-27.09,20.95-42,51.89-42.17,87.18H280A82.78,82.78,0,0,0,197.22,216v44.19h604a1.74,1.74,0,0,0,1.74-1.74V216A82.78,82.78,0,0,0,720.22,133.17ZM441.78,82.62c15-11.6,36.46-18.26,58.85-18.26S544.47,71,559.48,82.62c16,12.34,24.08,29.35,24.19,50.56H417.59C417.7,112,425.83,95,441.78,82.62Z"/><path d="M744.39,298.51H254.1V898.22A82.78,82.78,0,0,0,336.88,981H663.35a82.78,82.78,0,0,0,82.78-82.78v-598A1.74,1.74,0,0,0,744.39,298.51ZM414.14,881.42a19.84,19.84,0,0,1-39.68,0V439.09a19.84,19.84,0,0,1,39.68,0Zm105.81,0a19.84,19.84,0,0,1-39.68,0V439.09a19.84,19.84,0,0,1,39.68,0Zm107.14,0a19.84,19.84,0,1,1-39.68,0V439.09a19.84,19.84,0,1,1,39.68,0Z"/></svg>