<svg id="Layer_1" data-name="Layer 1" xmlns="http://www.w3.org/2000/svg" viewBox="0 0 1000 1000"><defs><style>.cls-1{fill:#83bd49;stroke:#fff;stroke-miterlimit:10;}.cls-2{opacity:0.25;}.cls-3{fill:#fff;}</style></defs><title>BroccoCoin</title><circle class="cls-1" cx="500.5" cy="499.5" r="429"/><g class="cls-2"><circle cx="500.5" cy="499.5" r="360.5"/></g><path class="cls-3" d="M745.34,475.52a57,57,0,0,0-14-24.25,47.8,47.8,0,0,0-4.08-3.57,85.59,85.59,0,0,0,5.61-30.52l-3.07-22.83a85.81,85.81,0,0,0-22.09-37.9l-2-2A64.38,64.38,0,0,0,678,336.65a65.45,65.45,0,0,0-8.77-3.82l-.8-6A85.81,85.81,0,0,0,646.34,289L629,275.53a85.5,85.5,0,0,0-43.35-11.73h-2a65,65,0,0,0-27.29,4.69c-1.27-1.4-2.59-2.76-4-4.08a64.38,64.38,0,0,0-27.64-17.76,64.69,64.69,0,0,0-33.09-7.4l-22.83,3.07a85.81,85.81,0,0,0-37.9,22.09l-13.43,17.38A88.77,88.77,0,0,0,411.89,293L393,295.5a85.81,85.81,0,0,0-37.9,22.09l-2,2a67.58,67.58,0,0,0-7.61,8.37c-18.45,2.58-36.68,11.37-49.65,24.35A64.38,64.38,0,0,0,278.06,380a64.69,64.69,0,0,0-7.4,33.09v.06a37.25,37.25,0,0,0-2.83,2.72c-8.06,8.06-14.13,21.28-13.61,32.86.54,12,4.49,24.48,13.61,32.86l9.4,7.27c.67.39,1.36.76,2,1.11a48,48,0,0,0-2.29,9.59c-1.33,9.9-.07,21,5.51,29.63,6.36,9.86,15.94,18.79,27.77,21.35a84.28,84.28,0,0,0,23.56,2,34.83,34.83,0,0,0,9.23,13.92l9.4,7.27A46.13,46.13,0,0,0,373.22,580a23.34,23.34,0,0,0,11-.32,34.58,34.58,0,0,0,17.28-5.51,15.9,15.9,0,0,0,4.61-3.3l25.05,22.52c4.09,5.72,8.14,11.47,12.21,17.2,6,8.47,12.22,16.84,17.92,25.53l.6.94v85.86a36.92,36.92,0,0,0,36.81,36.81h51.13a36.92,36.92,0,0,0,36.81-36.81V645.41q11.21-29.69,23.43-59l.75-1.8.87-2.06q1.74-4.1,3.5-8.19c1-2.28,2-4.55,3-6.82.63.74,1.2,1.36,1.61,1.76l9.4,7.27,11.1,4.68A80.6,80.6,0,0,0,653.11,583a78.62,78.62,0,0,0,12.82-1.79l11.1-4.68,9.4-7.27a70.49,70.49,0,0,0,7.71-9.86,39.72,39.72,0,0,0,5-12l.06-.29q3.19-2.61,6.18-5.57a55.45,55.45,0,0,0,14.51-6.29,59.2,59.2,0,0,0,20.19-20.66,52.39,52.39,0,0,0,5.25-13.25C747.33,493.13,747.76,483.66,745.34,475.52ZM498.69,597.15l-.62,0a156.8,156.8,0,0,0-16.7-17.63q-8.4-7.69-16.88-15.29c-1.57-2.17-21.13-20.29-22.77-22.41,7.59-4.38,31-15.19,36.72-21.62,5.06-2.06,10.09-4.18,15-6.46,0,2.67,1.6,26.71,1.63,29.38.14,12.29,1.76,24.47,3.48,36.62.72,5.12,1.52,10.22,2.31,15.33.11.69.2,1.37.31,2.06Zm74.28-35A137.29,137.29,0,0,0,545.2,596c-1.24-8.69-2.68-17.36-3.93-26l-.24-1.71c-.1-.74-.24-1.82-.26-2-.35-2.88-.67-5.76-.92-8.65-.48-5.44-.75-10.89-.76-16.36,0-5.66,0-11.32-.25-16.94A219.47,219.47,0,0,1,570.22,533c3.07,1.5,6.12,3,9.12,4.68,1.06.77,2.14,1.49,3.24,2.19Q577.7,551,573,562.12Z"/><path class="cls-3" d="M500.5,139C699.6,139,861,300.4,861,499.5S699.6,860,500.5,860,140,698.6,140,499.5,301.4,139,500.5,139m0-10a369.37,369.37,0,1,0,144.22,29.12A368.19,368.19,0,0,0,500.5,129Z"/></svg>