<?xml version="1.0" encoding="UTF-8"?>
<svg width="285px" height="285px" viewBox="0 0 285 285" version="1.1" xmlns="http://www.w3.org/2000/svg" xmlns:xlink="http://www.w3.org/1999/xlink">
    <!-- Generator: Sketch 47.1 (45422) - http://www.bohemiancoding.com/sketch -->
    <title>open-pantry-logo-square</title>
    <desc>Created with Sketch.</desc>
    <defs></defs>
    <g id="Page-1" stroke="none" stroke-width="1" fill="none" fill-rule="evenodd">
        <g id="open-pantry-logo-square" fill-rule="nonzero">
            <path d="M284.096,272.206 C284.096,278.833 278.723,284.206 272.096,284.206 L12.606,284.206 C5.979,284.206 0.606,278.833 0.606,272.206 L0.606,12.716 C0.606,6.089 5.979,0.716 12.606,0.716 L272.096,0.716 C278.723,0.716 284.096,6.089 284.096,12.716 L284.096,272.206 Z" id="Shape" fill="#279327"></path>
            <g id="Group" transform="translate(42.000000, 51.000000)" fill="#FFFFFF">
                <path d="M113.116,25.362 C87.062,53.597 97.446,75.243 104.557,84.562 C101.374,93.461 99.227,101.366 97.817,108.251 C92.295,83.448 85.023,66.394 78.827,55.218 C81.867,47.261 83.788,32.018 62.972,17.992 C34.872,-0.948 0.232,16.458 0.232,16.458 C32.518,29.648 18.02,54.494 37.518,67.647 C39.189,68.775 41.108,69.496 43.177,69.899 C52.221,71.697 63.98,67.633 69.143,65.55 C70.782,64.881 71.758,64.43 71.758,64.43 C70.552,62.197 69.322,60.041 68.068,57.962 C67.163,56.453 66.248,55 65.301,53.571 C59.018,44.027 52.15,36.324 45.044,30.572 C45.044,30.572 58.269,36.405 69.909,53.289 C78.359,65.555 88.97,90.55 95.116,132.356 C96.414,140.073 96.968,143.736 97.103,144.119 C97.626,145.653 99.173,146.581 100.751,146.327 L100.948,146.295 C102.619,145.934 103.711,144.379 103.511,142.682 C103.081,138.871 102.599,135.197 102.078,131.621 C101.882,123.101 103.148,109.269 109.662,89.994 C109.683,90.009 109.686,90.027 109.707,90.042 C118.696,63.416 140.949,38.645 142.34,37.115 C131.413,51.253 117.992,79.365 116.619,93.673 C116.619,93.673 151.947,100.855 165.242,86.465 C188.194,61.581 159.641,31.606 200.473,2.406 C200.472,2.406 146.184,-10.476 113.116,25.362 Z" id="Shape"></path>
                <path d="M135.92,102.108 C135.918,102.108 135.918,102.108 135.917,102.108 C134.157,102.108 132.452,102.057 130.813,101.977 C132.142,106.572 132.822,111.308 132.822,116.19 C132.822,121.095 132.179,125.909 130.891,130.628 C129.604,135.349 127.641,139.579 125.005,143.319 C122.367,147.061 119.088,150.095 115.166,152.423 C111.24,154.753 106.642,155.917 101.372,155.917 C96.222,155.917 91.653,154.814 87.67,152.606 C83.684,150.399 80.374,147.456 77.738,143.778 C75.1,140.1 73.076,135.902 71.669,131.18 C70.258,126.461 69.554,121.587 69.554,116.558 C69.554,111.655 70.226,106.842 71.577,102.12 C72.925,97.401 74.916,93.2 77.554,89.521 C77.861,89.092 78.208,88.705 78.533,88.295 C76.391,81.571 74.236,76.004 72.227,71.465 C72.045,71.54 71.854,71.619 71.654,71.701 C67.334,73.443 59.42,76.207 51.384,76.849 C48.248,81.285 45.595,86.096 43.529,91.361 C40.402,99.332 38.839,107.609 38.839,116.19 C38.839,124.65 40.339,132.867 43.345,140.835 C46.348,148.807 50.578,155.888 56.036,162.078 C61.49,168.271 68.02,173.268 75.624,177.068 C83.225,180.87 91.685,182.769 101.005,182.769 C110.077,182.769 118.446,180.93 126.11,177.252 C133.772,173.573 140.364,168.7 145.882,162.63 C151.4,156.561 155.722,149.543 158.848,141.571 C161.975,133.602 163.538,125.326 163.538,116.742 C163.538,110.28 162.613,103.894 160.791,97.581 C154.309,100.582 146.003,102.108 135.92,102.108 Z" id="Shape"></path>
                <path d="M119.018,149.08 C118.206,146.544 115.059,144.484 110.906,143.66 C110.819,139.778 105.335,136.645 98.573,136.645 C91.812,136.645 86.327,139.778 86.24,143.66 C82.087,144.484 78.94,146.543 78.128,149.08 C74.195,150.268 71.509,152.639 71.509,155.374 C71.509,159.299 77.034,162.482 83.85,162.482 C85.925,162.482 87.878,162.184 89.595,161.662 C91.846,163.039 95.031,163.904 98.573,163.904 C102.116,163.904 105.301,163.039 107.551,161.662 C109.268,162.183 111.22,162.482 113.296,162.482 C120.112,162.482 125.637,159.3 125.637,155.374 C125.637,152.639 122.951,150.269 119.018,149.08 Z" id="Shape"></path>
            </g>
        </g>
    </g>
</svg>