<svg id="Layer_1" data-name="Layer 1" xmlns="http://www.w3.org/2000/svg" viewBox="0 0 1000 1000"><defs><style>.cls-1{fill:#8b3dbd;}.cls-2{opacity:0.25;}.cls-3{fill:#fff;}</style></defs><title>ProteinCoin</title><circle class="cls-1" cx="500.5" cy="499.5" r="429"/><g class="cls-2"><circle cx="500.5" cy="499.5" r="360.5"/></g><path class="cls-3" d="M500.5,139C699.6,139,861,300.4,861,499.5S699.6,860,500.5,860,140,698.6,140,499.5,301.4,139,500.5,139m0-10a369.37,369.37,0,1,0,144.22,29.12A368.19,368.19,0,0,0,500.5,129Z"/><path class="cls-3" d="M351.32,734.5c-53.52,0-94.1-38.48-94.1-75.21s40.58-75.21,94.1-75.21,96.9,33.67,96.9,75.21S404.83,734.5,351.32,734.5Z"/><path class="cls-3" d="M738.41,382.14c0-.1,0-.2,0-.29s0-.33,0-.49-.06-.48-.1-.72-.05-.32-.09-.48-.12-.48-.19-.72-.08-.3-.14-.44-.2-.51-.31-.77-.09-.23-.15-.35a10,10,0,0,0-.59-1l-.16-.22c-.18-.26-.37-.52-.57-.76l-.07-.09-60.17-69.91-1.45-45.66L536.12,274.13l.34,46.29L475,384.55h0a10,10,0,0,0-2.79,6.91V528.11a72.53,72.53,0,0,1,20-7.57V402.73L611.83,416.9v295l-39.93-10.77a106.6,106.6,0,0,1-14.61,16.77l61.94,16.71.1,0a10,10,0,0,0,1.12.22l.22,0a10,10,0,0,0,1.17.08h0c.26,0,.53,0,.79,0l.26,0,.53-.07.32-.06.45-.09.35-.1.35-.1,111.17-35.83A10,10,0,0,0,743,689Zm-83.35-99.9.59,18.65L556.4,313.11l-.15-20.91ZM503.28,383.91,546,339.39c7,8.29,18.05,21.46,29.24,34.4q10.47,12.1,18.32,20.81Zm120,13c-9-8.49-33.3-36.28-57.32-64.85l95.91-11.8L710,376.19c-9.74,2.2-22.72,5.16-35.73,8.19C644,391.39,630.09,394.9,623.25,396.93Zm8.57,314.34V415.89l86.77-20.94,4.3,287Z"/><path class="cls-3" d="M486.42,544c-26.22,0-49.28,17.37-62.69,43.6,30.1,16.65,49.35,44.69,49.35,71.9,0,20.45-10.87,41.36-29,57.56,12.77,11.38,27.88,18,42.7,17.94,36.73-.06,75.15-40.7,75.06-94.22S528,543.93,486.42,544Z"/><path class="cls-3" d="M235.31,498.73c7.68,25.94,30.34,44.13,54.76,53.6A66.26,66.26,0,0,0,334,553.87c12.88-4,27.13-10.6,36.84-20.21,9.92-9.82,13.89-23,16.25-36.38a248.65,248.65,0,0,1,9.46-37.9q1.47-4.28,3.12-8.49.81-2.07,1.66-4.12c.14-.31.89-2,1.08-2.43,3.24-7.16,6.81-14.15,9.69-21.47a65.33,65.33,0,0,0,3.76-13.55c.77-1.49,1.5-3,2.15-4.55,4.18-9.84,6.33-21.34,3.5-31.86-1.79-6.64-6.28-12.06-11.54-16.74q16.65-29.87,34.65-59a29.88,29.88,0,0,0,17.15,5.37c16.22,0,31.78-14.19,31.07-30.93s-13.55-31-30.93-31.07a29.11,29.11,0,0,0-7.72,1c-4.73-11.09-15.2-19.1-28.24-19.13-16.22,0-31.78,14.19-31.07,30.93.51,12,7.19,22.65,17.28,27.81q-16.95,27.49-32.69,55.69c-14.66-5.17-30.69-4.71-44.57,4.71-18.4,12.48-26.39,32.68-38.89,50.14-.68.94-1.37,1.88-2.06,2.81l-.72,1-.72.89c-1.83,2.26-3.68,4.49-5.58,6.69-3.43,4-7,7.81-10.64,11.58-6.76,7-13.81,13.72-20.9,20.39C236.19,449.79,228.24,474.86,235.31,498.73Z"/></svg>